<svg width="60" height="59" viewBox="0 0 60 59" fill="none" xmlns="http://www.w3.org/2000/svg">
<path d="M29.8939 0C30.31 0.14429 30.6354 0.27224 30.9118 0.63769C32.0602 2.5517 33.0889 4.54682 34.2531 6.45042C34.3436 6.59849 34.5303 6.98172 34.6666 7.0228L50.0962 7.03363C50.4865 7.03432 50.8013 7.28842 51.0435 7.56594L55.2179 14.7283C55.4002 15.15 55.4572 15.4575 55.31 15.9015L51.6457 22.2395L51.6203 22.4628L59.2753 35.7285C59.4864 36.244 59.485 36.5004 59.2627 37.0148C57.9244 39.1512 56.8154 41.4446 55.4731 43.5762C55.0873 44.1887 54.8698 44.6803 54.0446 44.754L46.6884 44.7661L39.2832 57.6046C38.9161 58.3408 38.5336 58.6898 37.6873 58.7561C35.1473 58.9549 32.353 58.6002 29.7857 58.756C29.4149 58.7302 29.0559 58.5942 28.7635 58.3689C27.3487 56.2253 26.1582 53.9229 24.8409 51.7144L9.33914 51.7199C8.79452 51.7039 8.47072 51.3085 8.19232 50.8942C6.76602 48.772 5.67199 46.2165 4.24336 44.0697C4.00526 43.6131 4.02461 43.0186 4.26265 42.567L7.87373 36.3434L0.410845 23.4784L0 22.5867V22.1645C1.29757 19.6129 2.86361 17.1952 4.24172 14.6822C4.51078 14.3498 4.85617 14.0052 5.32037 13.9996L12.7502 13.9909L20.3897 0.75267C20.5956 0.31838 21.0155 0.16645 21.4334 0H29.8939ZM53.8655 15.48H21.6449L25.639 8.4089L21.6794 1.54756L20.7867 2.97832L15.2537 12.63L20.8805 22.3641L49.8675 22.3768L53.8655 15.48ZM13.6074 15.48H5.56986L21.6449 43.3439H13.6426L9.58862 50.3099H22.491L28.131 40.6354C23.2799 32.2566 18.3946 23.8934 13.6074 15.48ZM57.8843 36.3076C57.7184 35.9004 57.4787 35.5164 57.2619 35.1344C55.3897 31.8358 53.4276 28.5848 51.5397 25.2948L40.1988 25.272L25.7635 50.2389L25.7638 50.3807L29.7177 57.2041L45.8289 29.3418C46.0588 29.5842 46.2322 29.9205 46.4042 30.209C47.6081 32.2284 48.6972 34.318 49.9525 36.3076H57.8843Z" fill="#191919" fill-opacity="0.4"/>
</svg>
